<svg xmlns="http://www.w3.org/2000/svg" viewBox="0 0 234 180" width="100" height="77">
  <g fill="#0056D2">
    <!-- Órbita Elíptica -->
    <path d="M50.6 154.7c-26.8-.1-44.2-7.4-49.2-20.5C-3.4 121.5 4.2 105.1 22.9 88c18.4-16.9 45.5-32.6 76.2-44.2 18.1-6.8 36.1-11.8 53.5-14.6a1 1 0 0 1 .3 2c-17.2 2.8-35.1 7.7-53.1 14.5-30.5 11.5-57.3 27.1-75.6 43.8-18 16.6-25.4 32.2-20.9 44.1 4.6 12.1 21.8 19.1 47.3 19.2a1 1 0 0 1 0 2z"/>
    <path d="M104 147.2a1 1 0 0 1-1-2 328.3 328.3 0 0 0 30.1-9.7c30.5-11.5 57.3-27.1 75.6-43.8 18-16.6 25.5-32.2 21-44.1-4.9-12.9-23.6-19.9-51.5-19.2a1 1 0 1 1 0-2c28.7-.7 48.2 6.8 53.4 20.5 4.8 12.7-2.8 29.1-21.5 46.3-18.4 16.9-45.5 32.6-76.2 44.2a344 344 0 0 1-30.4 9.7h-.2z"/>
    <!-- Estrella Grande -->
    <path d="M101.5 150.1l18.7-4.4 4.4-25.6 4.4 25.6 18.7 4.4-18.7 4.4-4.4 25.6-4.4-25.6z"/>
    <!-- Estrella Mediana -->
    <path d="M178 23.6l-12.3 2.9-2.9 16.8-2.9-16.8-12.3-2.9 12.3-2.9 2.9-16.8 2.9 16.8z"/>
    <!-- Estrella Pequeña -->
    <path d="M148.7 9.5l6-1.4 1.4-8.2 1.4 8.2 6 1.4-6 1.4-1.4 8.2-1.4-8.2z"/>
  </g>
</svg>